<mxfile host="65bd71144e">
    <diagram id="S1h2xF3ke8mjaqTTrH7G" name="Page-1">
        <mxGraphModel dx="421" dy="338" grid="1" gridSize="10" guides="1" tooltips="1" connect="1" arrows="1" fold="1" page="1" pageScale="1" pageWidth="850" pageHeight="1100" math="0" shadow="0">
            <root>
                <mxCell id="0"/>
                <mxCell id="1" parent="0"/>
                <mxCell id="2" style="edgeStyle=orthogonalEdgeStyle;rounded=0;html=1;exitX=1;exitY=0.5;exitDx=0;exitDy=0;entryX=0;entryY=0.5;entryDx=0;entryDy=0;fontSize=16;endArrow=open;endFill=0;endSize=10;" edge="1" parent="1" source="3" target="5">
                    <mxGeometry relative="1" as="geometry"/>
                </mxCell>
                <mxCell id="28" style="edgeStyle=none;html=1;exitX=0.5;exitY=1;exitDx=0;exitDy=0;endArrow=open;endFill=0;endSize=10;" edge="1" parent="1" source="3">
                    <mxGeometry relative="1" as="geometry">
                        <mxPoint x="64" y="140" as="targetPoint"/>
                    </mxGeometry>
                </mxCell>
                <mxCell id="3" value="Lexical Analysis" style="text;html=1;strokeColor=none;fillColor=none;align=center;verticalAlign=middle;whiteSpace=wrap;rounded=0;" vertex="1" parent="1">
                    <mxGeometry x="40" y="70" width="50" height="40" as="geometry"/>
                </mxCell>
                <mxCell id="4" style="edgeStyle=orthogonalEdgeStyle;rounded=0;html=1;exitX=1;exitY=0.5;exitDx=0;exitDy=0;entryX=0;entryY=0.5;entryDx=0;entryDy=0;fontSize=16;endArrow=open;endFill=0;endSize=10;" edge="1" parent="1" source="5" target="6">
                    <mxGeometry relative="1" as="geometry"/>
                </mxCell>
                <mxCell id="29" style="edgeStyle=none;html=1;exitX=0.5;exitY=1;exitDx=0;exitDy=0;endArrow=none;endFill=0;endSize=10;startArrow=open;startFill=0;startSize=10;" edge="1" parent="1" source="5">
                    <mxGeometry relative="1" as="geometry">
                        <mxPoint x="135" y="140" as="targetPoint"/>
                    </mxGeometry>
                </mxCell>
                <mxCell id="5" value="Syntax&lt;br&gt;Analysis" style="text;html=1;strokeColor=none;fillColor=none;align=center;verticalAlign=middle;whiteSpace=wrap;rounded=0;" vertex="1" parent="1">
                    <mxGeometry x="110" y="70" width="50" height="40" as="geometry"/>
                </mxCell>
                <mxCell id="30" style="edgeStyle=none;html=1;exitX=0.5;exitY=1;exitDx=0;exitDy=0;endArrow=none;endFill=0;endSize=10;startArrow=open;startFill=0;startSize=10;" edge="1" parent="1" source="6">
                    <mxGeometry relative="1" as="geometry">
                        <mxPoint x="215" y="140" as="targetPoint"/>
                    </mxGeometry>
                </mxCell>
                <mxCell id="6" value="Semantic&lt;br&gt;Analysis" style="text;html=1;strokeColor=none;fillColor=none;align=center;verticalAlign=middle;whiteSpace=wrap;rounded=0;" vertex="1" parent="1">
                    <mxGeometry x="190" y="70" width="50" height="40" as="geometry"/>
                </mxCell>
                <mxCell id="14" value="" style="shape=curlyBracket;whiteSpace=wrap;html=1;rounded=1;flipH=1;rotation=-90;" vertex="1" parent="1">
                    <mxGeometry x="135" y="-35" width="20" height="190" as="geometry"/>
                </mxCell>
                <mxCell id="15" value="" style="shape=curlyBracket;whiteSpace=wrap;html=1;rounded=1;flipH=1;rotation=-90;" vertex="1" parent="1">
                    <mxGeometry x="303.75" y="23.75" width="20" height="72.5" as="geometry"/>
                </mxCell>
                <mxCell id="16" style="edgeStyle=none;html=1;exitX=1;exitY=0.5;exitDx=0;exitDy=0;entryX=0;entryY=0.5;entryDx=0;entryDy=0;fontSize=16;endArrow=open;endFill=0;endSize=15;" edge="1" parent="1" source="18" target="20">
                    <mxGeometry relative="1" as="geometry"/>
                </mxCell>
                <mxCell id="18" value="Analysis" style="text;html=1;strokeColor=none;fillColor=none;align=center;verticalAlign=middle;whiteSpace=wrap;rounded=0;fontSize=16;" vertex="1" parent="1">
                    <mxGeometry x="110" y="10" width="70" height="40" as="geometry"/>
                </mxCell>
                <mxCell id="19" style="edgeStyle=none;html=1;exitX=1;exitY=0.5;exitDx=0;exitDy=0;entryX=0;entryY=0.5;entryDx=0;entryDy=0;fontSize=16;endArrow=open;endFill=0;endSize=15;" edge="1" parent="1" source="20" target="24">
                    <mxGeometry relative="1" as="geometry"/>
                </mxCell>
                <mxCell id="20" value="Synthesis" style="text;html=1;strokeColor=none;fillColor=none;align=center;verticalAlign=middle;whiteSpace=wrap;rounded=0;fontSize=16;" vertex="1" parent="1">
                    <mxGeometry x="270" y="10" width="90" height="40" as="geometry"/>
                </mxCell>
                <mxCell id="22" style="edgeStyle=none;html=1;exitX=1;exitY=0.5;exitDx=0;exitDy=0;entryX=0;entryY=0.5;entryDx=0;entryDy=0;fontSize=16;endArrow=open;endFill=0;endSize=15;" edge="1" parent="1" source="23" target="18">
                    <mxGeometry relative="1" as="geometry"/>
                </mxCell>
                <mxCell id="23" value="Input" style="text;html=1;strokeColor=none;fillColor=none;align=center;verticalAlign=middle;whiteSpace=wrap;rounded=0;fontSize=16;" vertex="1" parent="1">
                    <mxGeometry x="10" y="10" width="60" height="40" as="geometry"/>
                </mxCell>
                <mxCell id="24" value="Output" style="text;html=1;strokeColor=none;fillColor=none;align=center;verticalAlign=middle;whiteSpace=wrap;rounded=0;fontSize=16;" vertex="1" parent="1">
                    <mxGeometry x="400" y="10" width="60" height="40" as="geometry"/>
                </mxCell>
                <mxCell id="26" value="Symbol Table" style="rounded=1;whiteSpace=wrap;html=1;fontSize=15;fillColor=#1ba1e2;fontColor=#ffffff;strokeColor=#000000;" vertex="1" parent="1">
                    <mxGeometry x="30" y="140" width="330" height="40" as="geometry"/>
                </mxCell>
                <mxCell id="31" style="edgeStyle=none;html=1;exitX=0.408;exitY=0.978;exitDx=0;exitDy=0;endArrow=none;endFill=0;endSize=10;startArrow=open;startFill=0;startSize=10;exitPerimeter=0;" edge="1" parent="1" source="27">
                    <mxGeometry relative="1" as="geometry">
                        <mxPoint x="310" y="140" as="targetPoint"/>
                    </mxGeometry>
                </mxCell>
                <mxCell id="27" value="Code&lt;br&gt;Generation" style="text;html=1;strokeColor=none;fillColor=none;align=center;verticalAlign=middle;whiteSpace=wrap;rounded=0;" vertex="1" parent="1">
                    <mxGeometry x="290" y="70" width="50" height="40" as="geometry"/>
                </mxCell>
            </root>
        </mxGraphModel>
    </diagram>
</mxfile>